<svg version="1.1" id="Layer_1" xmlns="http://www.w3.org/2000/svg" xmlns:xlink="http://www.w3.org/1999/xlink" x="0px" y="0px"
	 width="100%" viewBox="0 0 1446 339" enable-background="new 0 0 1446 339" xml:space="preserve">
<path fill="#FAFAF6" opacity="1.000000" stroke="none" 
	d="
M878.088318,204.999969 
	C878.291809,159.502884 878.398743,114.505051 878.752380,69.509163 
	C878.866089,55.050381 876.535339,41.784672 865.653259,31.020601 
	C861.148132,26.564245 862.404358,22.158314 868.473755,20.548374 
	C879.215881,17.699001 890.043640,14.883399 901.014038,13.260542 
	C913.190186,11.459335 918.361938,16.131018 919.013245,28.649965 
	C920.510498,57.428226 921.667603,86.224190 922.955322,115.013298 
	C922.998352,115.975044 922.960754,116.940384 922.960754,118.968643 
	C927.985168,115.917366 932.461853,113.520599 936.594910,110.632164 
	C953.255859,98.988678 970.985535,89.838829 991.183777,86.036430 
	C1017.185120,81.141579 1042.181274,84.708435 1066.469971,94.642479 
	C1071.848267,96.842224 1077.170898,99.204155 1082.643921,101.138939 
	C1087.338989,102.798729 1089.514526,101.760254 1089.410156,97.096771 
	C1089.072021,81.975739 1088.757324,66.803795 1087.205811,51.778236 
	C1086.194092,41.981007 1078.655762,36.782558 1069.587524,34.145069 
	C1063.686890,32.428905 1057.708008,30.976164 1051.744751,29.483194 
	C1047.636841,28.454729 1044.634521,25.301483 1045.409302,21.795027 
	C1045.955078,19.325245 1050.124146,17.547546 1052.857178,15.734794 
	C1053.692871,15.180456 1055.130981,15.483204 1056.293335,15.479798 
	C1094.791138,15.367002 1133.288940,15.250186 1171.786743,15.203499 
	C1173.726196,15.201148 1176.353394,15.152442 1177.457153,16.291384 
	C1179.499512,18.398657 1182.086304,21.567335 1181.762451,23.925148 
	C1181.447632,26.215807 1178.086548,29.017860 1175.495728,29.869450 
	C1170.329224,31.567705 1164.776367,32.095459 1159.379150,33.085537 
	C1143.026367,36.085308 1136.190430,44.314003 1136.087280,60.876171 
	C1135.799683,107.037430 1135.187378,153.198608 1135.232056,199.359299 
	C1135.260254,228.599945 1126.077271,254.289597 1107.392212,276.511963 
	C1088.541260,298.931671 1065.836548,316.275299 1038.102051,326.430237 
	C1033.143677,328.245758 1027.888428,329.279877 1022.725708,330.483734 
	C1021.644592,330.735870 1020.367065,330.145752 1019.180054,329.943726 
	C1019.447510,328.759247 1019.333252,327.230682 1020.042297,326.444305 
	C1026.154419,319.665436 1032.120605,312.713776 1038.696533,306.403625 
	C1049.997314,295.559509 1061.667358,285.154541 1070.328247,271.858490 
	C1098.937866,227.937363 1091.314941,165.560501 1053.623901,129.211533 
	C1013.794556,90.800400 949.130554,108.355659 931.303406,158.092087 
	C927.096130,169.830200 924.270569,182.604553 923.782654,195.019058 
	C922.848450,218.789154 923.395508,242.675568 924.578918,266.451447 
	C925.444031,283.830902 934.392090,291.786224 951.905823,293.689789 
	C954.879944,294.013031 957.929077,293.754547 960.874268,294.211426 
	C965.832947,294.980652 968.280762,298.485840 967.787354,303.527252 
	C967.335205,308.147888 964.870117,310.057648 959.448547,309.960999 
	C921.959290,309.292603 884.471191,308.520050 846.979431,308.055481 
	C841.159546,307.983337 836.898621,305.669769 831.693909,301.198212 
	C836.231934,298.811646 839.909973,296.426910 843.911865,294.879181 
	C849.789856,292.605713 855.951477,291.077484 861.897522,288.964966 
	C870.350952,285.961609 875.663574,280.071747 876.028809,270.918884 
	C876.898682,249.119919 877.423340,227.307175 878.088318,204.999969 
z"/>
<path fill="#FAFAF6" opacity="1.000000" stroke="none" 
	d="
M274.875427,249.046799 
	C269.117889,233.874237 269.647095,218.599396 271.532715,203.304840 
	C277.526276,154.689804 288.120514,106.955238 299.378204,59.353443 
	C302.126740,47.731533 300.991821,36.958580 293.110168,27.336493 
	C289.626099,23.083061 290.207184,19.263121 294.969513,17.747698 
	C303.778229,14.944666 312.791565,11.783305 321.891510,11.116696 
	C338.135406,9.926762 347.780457,20.681036 345.347015,36.880783 
	C341.889038,59.900703 337.645599,82.809196 333.399139,105.702484 
	C327.878418,135.465530 321.790344,165.124512 316.411896,194.912323 
	C313.598877,210.491470 314.556000,226.241791 318.337402,241.543671 
	C322.733459,259.332794 334.818268,270.326355 351.983154,275.961578 
	C373.949371,283.173065 396.107788,283.536438 418.395966,277.577393 
	C441.251678,271.466522 456.835510,250.775772 457.002930,225.312546 
	C457.325043,176.322021 457.291687,127.329048 457.356445,78.337029 
	C457.367218,70.172836 457.067200,62.008667 457.021332,53.843864 
	C456.965240,43.859631 452.318207,37.519478 442.973480,33.690678 
	C435.180969,30.497856 427.867554,26.114855 420.436096,22.085258 
	C419.375397,21.510117 418.142975,19.871098 418.261444,18.875856 
	C418.389313,17.801922 419.854706,16.365997 421.009949,16.031239 
	C424.808319,14.930562 428.723541,13.567618 432.606262,13.528328 
	C465.266907,13.197827 497.930176,13.108974 530.592896,13.026394 
	C536.963501,13.010287 539.527771,15.126409 539.600037,19.878368 
	C539.699036,26.394957 535.820801,31.228662 530.096558,30.841415 
	C508.516632,29.381542 500.338593,41.921726 500.217133,61.728161 
	C499.934082,107.888901 500.059631,154.052170 500.025208,200.214401 
	C500.010162,220.379166 500.003998,240.543915 500.007935,260.708679 
	C500.008362,263.040802 499.983643,265.382050 500.167297,267.703522 
	C501.394318,283.213287 509.108765,291.164398 524.547302,293.107513 
	C527.991760,293.541046 531.765564,293.699493 534.672791,295.290802 
	C536.850098,296.482605 538.686707,299.643097 539.089905,302.179047 
	C539.301331,303.508667 536.320923,305.750122 534.377808,306.892761 
	C532.762451,307.842743 530.562622,308.092957 528.611511,308.130768 
	C513.951233,308.415131 499.285065,308.831146 484.628021,308.642426 
	C478.373810,308.561890 472.144409,307.070099 465.889557,306.341370 
	C461.821777,305.867462 459.279663,303.561737 457.515472,300.073517 
	C456.690826,298.442932 455.748718,296.870300 454.827057,295.290497 
	C452.668579,291.590637 449.779480,290.554718 445.566895,292.019653 
	C432.401337,296.597961 419.384155,301.898102 405.885345,305.167267 
	C366.637024,314.672424 330.609497,307.122528 298.599365,282.228149 
	C287.602417,273.675781 279.771057,262.582031 274.875427,249.046799 
z"/>
<path fill="#FAFAF6" opacity="1.000000" stroke="none" 
	d="
M1138.602539,307.859131 
	C1134.855347,305.919495 1131.545166,303.986603 1127.904419,301.860748 
	C1131.765747,296.111908 1135.098633,292.565582 1141.709229,291.840607 
	C1160.260620,289.806091 1171.134888,277.860352 1178.010132,261.489014 
	C1198.977295,211.561890 1219.923218,161.625931 1240.905396,111.705109 
	C1248.950439,92.564445 1256.972778,73.413139 1265.201538,54.351261 
	C1268.864136,45.866478 1267.630981,38.583214 1261.286011,31.925102 
	C1253.317383,23.563250 1253.876831,20.709225 1264.970215,17.204594 
	C1272.364746,14.868473 1280.050659,13.233153 1287.724609,12.057357 
	C1297.734497,10.523655 1304.921509,15.323188 1309.046875,24.177198 
	C1315.287598,37.571247 1321.195312,51.126842 1326.973511,64.728882 
	C1355.095947,130.928101 1383.166748,197.149277 1411.154419,263.405518 
	C1415.877808,274.587524 1421.933960,284.174591 1433.599731,289.553619 
	C1440.372803,292.676605 1440.572388,297.874939 1433.925171,300.700256 
	C1422.682129,305.478912 1411.139893,310.084961 1399.269409,312.707733 
	C1387.185059,315.377747 1379.646240,310.444855 1374.597778,298.994019 
	C1368.768921,285.773956 1363.398438,272.349091 1357.974121,258.954376 
	C1353.547852,248.024567 1349.344116,237.004761 1345.025391,226.031311 
	C1340.310791,214.052170 1335.603394,210.881210 1322.846069,210.849106 
	C1294.851807,210.778671 1266.857300,210.686066 1238.863159,210.556824 
	C1225.405518,210.494690 1221.313843,213.280594 1216.325562,225.725220 
	C1210.516479,240.218079 1204.516724,254.634399 1198.691284,269.120789 
	C1193.729126,281.460602 1196.997803,287.416351 1210.138428,290.204315 
	C1213.065063,290.825287 1216.013062,291.358429 1218.966064,291.839661 
	C1228.063599,293.322327 1228.197998,293.397003 1233.286743,302.030670 
	C1230.429199,305.607727 1226.996460,307.661621 1222.023438,307.653656 
	C1194.362305,307.609314 1166.700928,307.773224 1138.602539,307.859131 
M1248.854980,144.344818 
	C1242.844360,159.114685 1236.833740,173.884537 1230.758667,188.813034 
	C1263.764038,188.813034 1295.934082,188.813034 1328.358398,188.813034 
	C1328.134399,187.794159 1328.082153,187.127182 1327.844116,186.534821 
	C1313.055420,149.737762 1298.269043,112.939690 1283.373169,76.185936 
	C1282.872437,74.950645 1280.902344,73.147980 1280.228760,73.380684 
	C1278.686890,73.913452 1276.909058,75.289528 1276.299683,76.765999 
	C1267.121094,99.004234 1258.116333,121.314224 1248.854980,144.344818 
z"/>
<path fill="#FAFAF6" opacity="1.000000" stroke="none" 
	d="
M799.836426,64.522919 
	C796.126831,82.787743 786.078003,95.072327 768.010620,101.698837 
	C768.892456,95.463364 769.455139,90.039238 770.456726,84.697403 
	C772.663391,72.928520 769.510498,63.167141 761.859802,53.777641 
	C732.304077,17.504784 681.163452,15.158740 648.801147,36.987118 
	C630.838257,49.103077 620.020874,66.331459 613.420227,86.348312 
	C605.189270,111.309212 600.556641,136.989944 601.217834,163.379700 
	C601.892700,190.315399 607.629761,216.133743 619.495911,240.454880 
	C640.620361,283.752228 683.441406,301.965332 729.966492,286.600677 
	C759.353638,276.895782 782.701660,258.817841 799.541870,232.564835 
	C801.236877,229.922318 804.040039,227.679047 806.814026,226.106140 
	C812.319702,222.984406 818.323608,227.119492 818.361877,233.554184 
	C818.427673,244.628510 814.007751,253.670425 806.892639,261.983551 
	C777.996887,295.744537 741.863892,314.141571 697.142944,316.293671 
	C639.112061,319.086334 584.693970,285.458130 563.440979,231.923096 
	C552.517578,204.407562 549.325623,175.599243 551.772400,146.117599 
	C554.495911,113.302094 565.824829,83.789642 585.049683,57.122055 
	C604.836914,29.674257 631.772583,13.647333 664.545227,7.069869 
	C693.878601,1.182662 722.205994,5.259700 749.353516,17.411579 
	C761.017334,22.632587 772.472595,28.380268 783.728271,34.435699 
	C795.355530,40.691063 800.928833,50.697529 799.836426,64.522919 
z"/>
<path fill="#FAFAF6" opacity="1.000000" stroke="none" 
	d="
M230.121460,252.040588 
	C233.456909,242.807785 236.604416,233.901627 239.833725,225.025238 
	C242.431473,217.884872 245.958069,215.571564 251.995941,216.879471 
	C256.736877,217.906418 258.332367,220.238922 257.963440,225.051651 
	C256.233124,247.624908 254.569397,270.203278 252.876205,292.779388 
	C252.739227,294.605804 252.631088,296.438660 252.387299,298.252075 
	C251.333542,306.090698 248.192200,308.848175 240.122147,308.821167 
	C230.122681,308.787689 220.123550,308.531799 210.124451,308.543304 
	C147.125183,308.615967 84.125946,308.738068 21.126690,308.831940 
	C19.130764,308.834930 17.111277,308.880432 15.142938,308.611816 
	C8.901502,307.760010 6.651813,304.895935 6.919052,298.410095 
	C7.120641,293.517578 9.538089,291.696838 15.691833,291.038788 
	C21.129011,290.457367 26.745333,290.118561 31.882761,288.445221 
	C45.314243,284.070312 51.846008,274.476654 51.869904,260.137329 
	C51.905727,238.637634 51.763443,217.137650 51.805744,195.638000 
	C51.893951,150.805084 51.946369,105.971596 52.253143,61.139988 
	C52.337917,48.752132 50.282936,37.393047 41.786209,27.717831 
	C38.232391,23.671101 38.936131,20.244303 43.620399,18.667389 
	C52.261841,15.758327 60.995960,12.557761 69.949387,11.265078 
	C86.497803,8.875841 96.735100,18.657848 96.925125,35.871563 
	C97.254448,65.702599 97.549866,95.534607 97.689430,125.366997 
	C97.861748,162.197403 97.759048,199.029205 97.976654,235.859207 
	C98.085777,254.329132 96.800964,272.456848 87.332237,289.884827 
	C95.543968,290.436005 103.059410,291.002258 110.582558,291.434052 
	C135.451187,292.861420 160.189560,292.230103 184.644440,286.828918 
	C205.081940,282.314972 220.129654,270.795380 230.121460,252.040588 
z"/>
</svg>