<?xml version="1.0" encoding="UTF-8"?>
<!DOCTYPE svg PUBLIC "-//W3C//DTD SVG 1.1//EN" "http://www.w3.org/Graphics/SVG/1.1/DTD/svg11.dtd">
<svg xmlns="http://www.w3.org/2000/svg" version="1.1" width="150px" height="97px" style="shape-rendering:geometricPrecision; text-rendering:geometricPrecision; image-rendering:optimizeQuality; fill-rule:evenodd; clip-rule:evenodd" xmlns:xlink="http://www.w3.org/1999/xlink">
<g><path style="opacity:1" fill="#274ba8" d="M 68.5,-0.5 C 72.5,-0.5 76.5,-0.5 80.5,-0.5C 83.2341,0.704964 85.9007,2.20496 88.5,4C 89.2524,4.67076 89.5858,5.5041 89.5,6.5C 87.0968,6.39297 85.2635,7.39297 84,9.5C 83.205,11.9012 82.0383,14.0679 80.5,16C 84.1256,16.2426 87.4589,15.4093 90.5,13.5C 91.1667,13.5 91.5,13.8333 91.5,14.5C 87.578,17.9572 82.9113,20.1238 77.5,21C 76.646,22.0217 75.646,22.8551 74.5,23.5C 69.7535,20.7946 64.7535,18.6279 59.5,17C 57.5494,15.2658 56.5494,13.0991 56.5,10.5C 56.7376,8.59565 57.7376,7.26231 59.5,6.5C 59.4142,5.5041 59.7476,4.67076 60.5,4C 63.0993,2.20496 65.7659,0.704964 68.5,-0.5 Z M 59.5,6.5 C 61.9032,6.39297 63.7365,7.39297 65,9.5C 65.8911,12.0302 67.0578,14.3635 68.5,16.5C 65.8344,16.067 63.1677,15.567 60.5,15C 59.1772,14.1841 58.5106,13.0174 58.5,11.5C 59.5,12.1667 60.5,12.8333 61.5,13.5C 62.7082,14.782 64.0416,14.782 65.5,13.5C 65.3764,12.8933 65.0431,12.56 64.5,12.5C 62.8333,10.5 61.1667,8.5 59.5,6.5 Z"/></g>
<g><path style="opacity:1" fill="#576bb8" d="M 89.5,6.5 C 92.1639,8.48441 93.8305,11.1511 94.5,14.5C 93.8333,15.5 93.1667,16.5 92.5,17.5C 92.7373,16.209 92.404,15.209 91.5,14.5C 91.5,13.8333 91.1667,13.5 90.5,13.5C 89.9467,11.3431 88.9467,11.5097 87.5,14C 86.0563,14.7805 84.723,14.6139 83.5,13.5C 85.045,10.7395 87.045,8.40615 89.5,6.5 Z"/></g>
<g><path style="opacity:0.016" fill="#b2bcde" d="M 64.5,12.5 C 65.0431,12.56 65.3764,12.8933 65.5,13.5C 64.0416,14.782 62.7082,14.782 61.5,13.5C 62.791,13.7373 63.791,13.404 64.5,12.5 Z"/></g>
<g><path style="opacity:0.152" fill="#e6eaf5" d="M 56.5,10.5 C 56.5494,13.0991 57.5494,15.2658 59.5,17C 64.7535,18.6279 69.7535,20.7946 74.5,23.5C 75.646,22.8551 76.646,22.0217 77.5,21C 82.9113,20.1238 87.578,17.9572 91.5,14.5C 92.404,15.209 92.7373,16.209 92.5,17.5C 91.2906,20.8632 89.9573,24.1966 88.5,27.5C 90.7808,28.2617 92.1141,27.2617 92.5,24.5C 93.4511,25.9187 93.7845,27.5853 93.5,29.5C 92.333,30.8148 90.833,31.4814 89,31.5C 85.16,30.23 81.3266,28.8966 77.5,27.5C 77.5,28.1667 77.5,28.8333 77.5,29.5C 81.3924,30.7423 82.3924,33.2423 80.5,37C 82.5767,37.1922 84.5767,37.6922 86.5,38.5C 82.5844,48.632 75.9177,51.132 66.5,46C 61.1338,40.7314 61.8004,37.7314 68.5,37C 67.0825,34.2565 67.4159,31.7565 69.5,29.5C 66.0855,29.2612 62.9188,29.9278 60,31.5C 57.3844,31.3829 55.8844,30.0496 55.5,27.5C 55.2627,26.209 55.596,25.209 56.5,24.5C 56.9651,27.4734 58.6318,28.6401 61.5,28C 60.6667,27.1667 59.8333,26.3333 59,25.5C 58.1444,21.5083 56.6444,17.8416 54.5,14.5C 54.6596,12.847 55.3263,11.5137 56.5,10.5 Z"/></g>
<g><path style="opacity:1" fill="#2541a3" d="M 61.5,22.5 C 63.8901,22.9126 66.2235,23.5793 68.5,24.5C 67.616,26.942 65.9493,27.7754 63.5,27C 61.9632,25.8904 61.2965,24.3904 61.5,22.5 Z"/></g>
<g><path style="opacity:0.592" fill="#5779be" d="M 54.5,16.5 C 54.5553,19.0661 55.222,21.7328 56.5,24.5C 55.596,25.209 55.2627,26.209 55.5,27.5C 54.6618,27.8417 54.3284,28.5084 54.5,29.5C 53.1667,25.1667 53.1667,20.8333 54.5,16.5 Z"/></g>
<g><path style="opacity:1" fill="#2744a5" d="M 83.5,22.5 C 84.8333,22.5 86.1667,22.5 87.5,22.5C 87.6476,25.3523 86.3143,27.019 83.5,27.5C 79.6738,25.5854 79.6738,23.9187 83.5,22.5 Z"/></g>
<g><path style="opacity:0.518" fill="#607ec0" d="M 94.5,16.5 C 95.1627,18.4726 95.4961,20.6392 95.5,23C 95.6209,26.7822 94.9542,30.2822 93.5,33.5C 93.5,32.1667 93.5,30.8333 93.5,29.5C 93.7845,27.5853 93.4511,25.9187 92.5,24.5C 93.64,21.9752 94.3067,19.3085 94.5,16.5 Z"/></g>
<g><path style="opacity:1" fill="#123199" d="M 77.5,27.5 C 76.7109,27.2172 76.0442,26.7172 75.5,26C 76.816,25.4719 77.4827,25.9719 77.5,27.5 Z"/></g>
<g><path style="opacity:1" fill="#19389e" d="M 94.5,14.5 C 94.5,15.1667 94.5,15.8333 94.5,16.5C 94.3067,19.3085 93.64,21.9752 92.5,24.5C 92.1141,27.2617 90.7808,28.2617 88.5,27.5C 89.9573,24.1966 91.2906,20.8632 92.5,17.5C 93.1667,16.5 93.8333,15.5 94.5,14.5 Z"/></g>
<g><path style="opacity:1" fill="#1d3a9f" d="M 54.5,14.5 C 56.6444,17.8416 58.1444,21.5083 59,25.5C 59.8333,26.3333 60.6667,27.1667 61.5,28C 58.6318,28.6401 56.9651,27.4734 56.5,24.5C 55.222,21.7328 54.5553,19.0661 54.5,16.5C 54.5,15.8333 54.5,15.1667 54.5,14.5 Z"/></g>
<g><path style="opacity:0.902" fill="#5659af" d="M 69.5,29.5 C 70.5045,28.3172 71.3378,26.9839 72,25.5C 72.9098,27.9449 72.0764,29.2782 69.5,29.5 Z"/></g>
<g><path style="opacity:1" fill="#2544a5" d="M 55.5,27.5 C 55.8844,30.0496 57.3844,31.3829 60,31.5C 62.9188,29.9278 66.0855,29.2612 69.5,29.5C 67.4159,31.7565 67.0825,34.2565 68.5,37C 61.8004,37.7314 61.1338,40.7314 66.5,46C 75.9177,51.132 82.5844,48.632 86.5,38.5C 84.5767,37.6922 82.5767,37.1922 80.5,37C 82.3924,33.2423 81.3924,30.7423 77.5,29.5C 77.5,28.8333 77.5,28.1667 77.5,27.5C 81.3266,28.8966 85.16,30.23 89,31.5C 90.833,31.4814 92.333,30.8148 93.5,29.5C 93.5,30.8333 93.5,32.1667 93.5,33.5C 91.0195,43.649 84.6862,49.649 74.5,51.5C 62.8222,48.8618 56.1556,41.5285 54.5,29.5C 54.3284,28.5084 54.6618,27.8417 55.5,27.5 Z"/></g>
<g><path style="opacity:1" fill="#133da1" d="M 76.5,29.5 C 77.6298,31.3146 78.2964,33.3146 78.5,35.5C 75.9976,36.7785 73.4976,36.7785 71,35.5C 70.8433,31.8183 72.6767,29.8183 76.5,29.5 Z"/></g>
<g><path style="opacity:1" fill="#2541a3" d="M 67.5,40.5 C 72.2137,40.1734 76.8804,40.5067 81.5,41.5C 79.3629,43.6602 76.6962,44.6602 73.5,44.5C 70.1138,45.0991 68.1138,43.7658 67.5,40.5 Z"/></g>
<g><path style="opacity:0.384" fill="#7d98cd" d="M 16.5,71.5 C 16.3444,68.9339 16.6777,66.4339 17.5,64C 16.9689,62.282 16.3023,62.1153 15.5,63.5C 14.9569,63.44 14.6236,63.1067 14.5,62.5C 15.6888,61.5713 17.0222,61.238 18.5,61.5C 18.4512,65.0781 17.7846,68.4115 16.5,71.5 Z"/></g>
<g><path style="opacity:0.941" fill="#5870ba" d="M 122.5,62.5 C 122.5,62.1667 122.5,61.8333 122.5,61.5C 125.337,61.7294 128.337,61.896 131.5,62C 134.408,64.0696 135.074,66.5696 133.5,69.5C 133.657,68.1266 133.49,66.7932 133,65.5C 132.626,67.4913 131.793,69.158 130.5,70.5C 131.608,68.3049 131.441,66.3049 130,64.5C 128.51,63.2721 127.01,63.2721 125.5,64.5C 124.71,63.5987 123.71,62.9321 122.5,62.5 Z"/></g>
<g><path style="opacity:0.522" fill="#768fc9" d="M 4.5,62.5 C 3.22235,62.7822 2.22235,63.4489 1.5,64.5C 0.596028,63.791 0.262695,62.791 0.5,61.5C 2.09903,61.2322 3.43236,61.5655 4.5,62.5 Z"/></g>
<g><path style="opacity:0.812" fill="#0641a3" d="M 4.5,62.5 C 4.5,67.1667 4.5,71.8333 4.5,76.5C 3.88258,76.6107 3.38258,76.944 3,77.5C 2.80192,75.6183 2.30192,73.9516 1.5,72.5C 1.5,69.8333 1.5,67.1667 1.5,64.5C 2.22235,63.4489 3.22235,62.7822 4.5,62.5 Z"/></g>
<g><path style="opacity:1" fill="#153aa0" d="M 47.5,61.5 C 47.8333,61.5 48.1667,61.5 48.5,61.5C 48.3677,64.5701 48.701,67.5701 49.5,70.5C 49.5,72.5 49.5,74.5 49.5,76.5C 49.9175,77.2216 50.5842,77.7216 51.5,78C 50.9056,78.4643 50.2389,78.631 49.5,78.5C 48.5,78.5 47.5,78.5 46.5,78.5C 45.4937,78.0623 45.4937,77.3957 46.5,76.5C 47.3878,71.4798 47.7211,66.4798 47.5,61.5 Z"/></g>
<g><path style="opacity:0.793" fill="#2b4faa" d="M 87.5,76.5 C 86.3478,77.625 85.3478,77.625 84.5,76.5C 84.6625,71.453 84.3292,66.453 83.5,61.5C 84.8333,61.5 86.1667,61.5 87.5,61.5C 87.5,66.5 87.5,71.5 87.5,76.5 Z"/></g>
<g><path style="opacity:1" fill="#022a98" d="M 100.5,62.5 C 100.181,67.3633 100.514,72.03 101.5,76.5C 101.44,77.0431 101.107,77.3764 100.5,77.5C 99.8094,72.6171 99.1428,67.7838 98.5,63C 99.0944,62.5357 99.7611,62.369 100.5,62.5 Z"/></g>
<g><path style="opacity:0.925" fill="#3861b2" d="M 100.5,62.5 C 100.833,62.5 101.167,62.5 101.5,62.5C 102.678,67.0213 102.678,71.6879 101.5,76.5C 100.514,72.03 100.181,67.3633 100.5,62.5 Z"/></g>
<g><path style="opacity:0.345" fill="#94abd6" d="M 122.5,61.5 C 122.5,61.8333 122.5,62.1667 122.5,62.5C 123.037,68.1348 122.37,73.4682 120.5,78.5C 119.662,78.1583 119.328,77.4916 119.5,76.5C 120.794,74.9522 121.461,72.9522 121.5,70.5C 121.414,67.9582 121.08,65.4582 120.5,63C 120.836,61.9701 121.503,61.4701 122.5,61.5 Z"/></g>
<g><path style="opacity:1" fill="#1f49a7" d="M 149.5,63.5 C 149.5,64.1667 149.5,64.8333 149.5,65.5C 147.402,66.9143 146.402,66.2476 146.5,63.5C 144.708,63.366 143.042,63.6993 141.5,64.5C 140.167,68.5 140.167,72.5 141.5,76.5C 141.833,77.1667 142.167,77.8333 142.5,78.5C 140.208,78.2436 138.041,78.5769 136,79.5C 135.536,78.9056 135.369,78.2389 135.5,77.5C 136.675,77.719 137.675,77.3857 138.5,76.5C 138.376,75.8933 138.043,75.56 137.5,75.5C 137.772,71.0983 137.439,66.7649 136.5,62.5C 137.628,61.7379 138.795,61.0712 140,60.5C 141.458,61.7468 142.958,61.7468 144.5,60.5C 146.36,61.2599 148.027,62.2599 149.5,63.5 Z"/></g>
<g><path style="opacity:0.514" fill="#7898cc" d="M 47.5,61.5 C 47.7211,66.4798 47.3878,71.4798 46.5,76.5C 46.7454,71.9464 46.4121,67.4464 45.5,63C 45.8361,61.9701 46.5028,61.4701 47.5,61.5 Z"/></g>
<g><path style="opacity:0.827" fill="#5d7cc0" d="M 70.5,62.5 C 68.1582,63.2107 67.8249,64.544 69.5,66.5C 68.2632,67.9649 67.2632,69.6316 66.5,71.5C 65.6618,71.8417 65.3284,72.5084 65.5,73.5C 65.2986,75.4495 65.2986,77.4495 65.5,79.5C 64.1667,78.1667 62.8333,78.1667 61.5,79.5C 60.6143,78.675 60.281,77.675 60.5,76.5C 61.4959,76.5858 62.3292,76.2524 63,75.5C 64.5,71.8333 66,68.1667 67.5,64.5C 66.2558,62.8667 66.7558,61.8667 69,61.5C 69.7648,61.5699 70.2648,61.9033 70.5,62.5 Z"/></g>
<g><path style="opacity:1" fill="#4254ad" d="M 70.5,62.5 C 72.7802,67.6457 75.4468,72.6457 78.5,77.5C 74.4251,80.1488 72.4251,78.8155 72.5,73.5C 70.1667,73.5 67.8333,73.5 65.5,73.5C 65.3284,72.5084 65.6618,71.8417 66.5,71.5C 67.9778,71.762 69.3112,71.4287 70.5,70.5C 69.7542,69.2638 69.4208,67.9305 69.5,66.5C 67.8249,64.544 68.1582,63.2107 70.5,62.5 Z"/></g>
<g><path style="opacity:0.459" fill="#627fc1" d="M 141.5,64.5 C 141.34,66.1992 141.506,67.8659 142,69.5C 144.119,66.5226 145.286,66.856 145.5,70.5C 145.279,73.9431 144.279,74.2764 142.5,71.5C 141.548,73.0453 141.215,74.712 141.5,76.5C 140.167,72.5 140.167,68.5 141.5,64.5 Z"/></g>
<g><path style="opacity:0.78" fill="#365bb0" d="M 16.5,77.5 C 17.3382,77.1583 17.6716,76.4916 17.5,75.5C 22.9199,77.4173 24.9199,75.4173 23.5,69.5C 23.3603,66.9568 22.6937,64.6234 21.5,62.5C 24.1667,61.1667 26.8333,61.1667 29.5,62.5C 28.7579,63.2868 27.9246,63.9535 27,64.5C 26.1735,68.5411 26.3401,72.5411 27.5,76.5C 30.1667,77.5 30.1667,78.5 27.5,79.5C 23.6973,78.8963 20.0306,78.2296 16.5,77.5 Z"/></g>
<g><path style="opacity:0.078" fill="#7a92ca" d="M 125.5,67.5 C 126.048,70.0838 127.715,71.0838 130.5,70.5C 129.5,71.1667 128.5,71.8333 127.5,72.5C 126.414,72.62 125.747,73.2867 125.5,74.5C 126.037,75.7412 126.704,76.9079 127.5,78C 126.969,79.718 126.302,79.8847 125.5,78.5C 124.213,74.7316 124.213,71.0649 125.5,67.5 Z"/></g>
<g><path style="opacity:1" fill="#263da1" d="M 16.5,71.5 C 16.2322,73.099 16.5655,74.4324 17.5,75.5C 17.6716,76.4916 17.3382,77.1583 16.5,77.5C 15.1667,77.5 14.5,76.8333 14.5,75.5C 14.7244,71.8212 15.0578,68.1545 15.5,64.5C 15.5,64.1667 15.5,63.8333 15.5,63.5C 16.3023,62.1153 16.9689,62.282 17.5,64C 16.6777,66.4339 16.3444,68.9339 16.5,71.5 Z"/></g>
<g><path style="opacity:1" fill="#415cb0" d="M 48.5,61.5 C 49.3091,63.2922 49.8091,65.2922 50,67.5C 52.209,65.2936 54.709,64.9602 57.5,66.5C 57.8333,66.1667 58.1667,65.8333 58.5,65.5C 57.7366,64.2807 56.7366,63.2807 55.5,62.5C 58.5,61.1667 61.5,61.1667 64.5,62.5C 63.7579,63.2868 62.9246,63.9535 62,64.5C 61.7668,68.5845 61.2668,72.5845 60.5,76.5C 58.7901,78.1996 56.7901,79.5329 54.5,80.5C 54.1667,80.1667 53.8333,79.8333 53.5,79.5C 57.2518,77.1705 58.4185,73.8372 57,69.5C 54.3886,67.3331 51.8886,67.6665 49.5,70.5C 48.701,67.5701 48.3677,64.5701 48.5,61.5 Z"/></g>
<g><path style="opacity:1" fill="#455cb1" d="M 119.5,76.5 C 115.402,79.421 111.069,80.0877 106.5,78.5C 105.761,78.631 105.094,78.4643 104.5,78C 105.416,77.7216 106.082,77.2216 106.5,76.5C 106.5,72.5 106.5,68.5 106.5,64.5C 105.596,63.791 105.263,62.791 105.5,61.5C 108.137,62.1513 110.637,62.1513 113,61.5C 117.271,62.2256 118.437,64.559 116.5,68.5C 118.986,70.578 119.986,73.2447 119.5,76.5 Z"/></g>
<g><path style="opacity:1" fill="#082e99" d="M 110.5,64.5 C 110.167,65.1667 109.833,65.8333 109.5,66.5C 108.677,69.977 108.177,73.6437 108,77.5C 107.825,72.9805 107.325,68.6472 106.5,64.5C 106.369,63.6236 106.702,62.9569 107.5,62.5C 108.739,62.9424 109.739,63.6091 110.5,64.5 Z"/></g>
<g><path style="opacity:0.088" fill="#f5f7fb" d="M 109.5,66.5 C 109.833,65.8333 110.167,65.1667 110.5,64.5C 111.708,63.7659 113.041,63.4326 114.5,63.5C 114.919,66.3245 113.919,68.4912 111.5,70C 116.218,70.098 117.551,72.2647 115.5,76.5C 113.632,76.9461 111.799,77.2795 110,77.5C 109.501,73.8484 109.335,70.1817 109.5,66.5 Z"/></g>
<g><path style="opacity:0.729" fill="#6e8ac6" d="M 29.5,67.5 C 29.5751,70.2062 29.9084,72.8728 30.5,75.5C 28.4162,73.007 28.0829,70.3404 29.5,67.5 Z"/></g>
<g><path style="opacity:1" fill="#3648a7" d="M 133.5,69.5 C 133.279,70.7348 132.612,71.7348 131.5,72.5C 132.193,73.5178 132.859,74.5178 133.5,75.5C 133.833,76.1667 134.167,76.8333 134.5,77.5C 131.032,78.108 128.699,76.4414 127.5,72.5C 128.5,71.8333 129.5,71.1667 130.5,70.5C 131.793,69.158 132.626,67.4913 133,65.5C 133.49,66.7932 133.657,68.1266 133.5,69.5 Z"/></g>
<g><path style="opacity:1" fill="#4f64b4" d="M 43.5,76.5 C 38.7473,80.7443 34.414,80.411 30.5,75.5C 29.9084,72.8728 29.5751,70.2062 29.5,67.5C 29.7385,64.8517 31.0718,63.0183 33.5,62C 36.634,61.2099 39.634,61.5432 42.5,63C 43.9295,64.8803 43.5962,66.3803 41.5,67.5C 40.4741,63.8512 38.1408,62.6846 34.5,64C 31.8333,68 31.8333,72 34.5,76C 38.0669,77.0754 41.0669,76.242 43.5,73.5C 44.5624,74.4246 44.5624,75.4246 43.5,76.5 Z"/></g>
<g><path style="opacity:0.184" fill="#96a9d5" d="M 133.5,75.5 C 135.035,76.3543 136.368,76.3543 137.5,75.5C 138.043,75.56 138.376,75.8933 138.5,76.5C 137.675,77.3857 136.675,77.719 135.5,77.5C 135.167,77.5 134.833,77.5 134.5,77.5C 134.167,76.8333 133.833,76.1667 133.5,75.5 Z"/></g>
<g><path style="opacity:0.89" fill="#5372bb" d="M 149.5,72.5 C 149.5,74.5 149.5,76.5 149.5,78.5C 147.031,79.0671 144.698,79.0671 142.5,78.5C 142.167,77.8333 141.833,77.1667 141.5,76.5C 145.307,77.2259 147.974,75.8926 149.5,72.5 Z"/></g>
<g><path style="opacity:0.737" fill="#6482c3" d="M 15.5,64.5 C 15.0578,68.1545 14.7244,71.8212 14.5,75.5C 13.596,76.209 13.2627,77.209 13.5,78.5C 8.74181,79.4019 4.07514,79.7352 -0.5,79.5C -0.5,78.5 -0.5,77.5 -0.5,76.5C 1.17649,75.8166 1.84316,74.4832 1.5,72.5C 2.30192,73.9516 2.80192,75.6183 3,77.5C 3.38258,76.944 3.88258,76.6107 4.5,76.5C 6.7925,76.7564 8.95917,76.4231 11,75.5C 12.9656,71.9091 14.4656,68.2424 15.5,64.5 Z"/></g>
<g><path style="opacity:0.604" fill="#91a6d4" d="M 43.5,76.5 C 44.5,76.5 45.5,76.5 46.5,76.5C 45.4937,77.3957 45.4937,78.0623 46.5,78.5C 44.6682,79.7181 43.6682,79.0514 43.5,76.5 Z"/></g>
<g><path style="opacity:0.196" fill="#92a9d4" d="M 49.5,76.5 C 50.5,76.5 51.5,76.5 52.5,76.5C 52.5,77.5 52.5,78.5 52.5,79.5C 51.209,79.7373 50.209,79.404 49.5,78.5C 50.2389,78.631 50.9056,78.4643 51.5,78C 50.5842,77.7216 49.9175,77.2216 49.5,76.5 Z"/></g>
<g><path style="opacity:0.461" fill="#7c95cb" d="M 84.5,76.5 C 85.3478,77.625 86.3478,77.625 87.5,76.5C 88.5,76.5 89.5,76.5 90.5,76.5C 89.7375,77.2679 88.7375,77.7679 87.5,78C 88.7932,78.49 90.1266,78.6567 91.5,78.5C 88.6084,79.0154 85.6084,79.3488 82.5,79.5C 81.6143,78.675 81.281,77.675 81.5,76.5C 82.5,76.5 83.5,76.5 84.5,76.5 Z"/></g>
<g><path style="opacity:0.793" fill="#385fb1" d="M 94.5,75.5 C 95.404,76.209 95.7373,77.209 95.5,78.5C 94.1667,78.5 92.8333,78.5 91.5,78.5C 90.1266,78.6567 88.7932,78.49 87.5,78C 88.7375,77.7679 89.7375,77.2679 90.5,76.5C 91.9587,76.5674 93.2921,76.2341 94.5,75.5 Z"/></g>
<g><path style="opacity:0.835" fill="#7992ca" d="M 101.5,62.5 C 101.167,62.5 100.833,62.5 100.5,62.5C 99.7611,62.369 99.0944,62.5357 98.5,63C 99.1428,67.7838 99.8094,72.6171 100.5,77.5C 101.107,77.3764 101.44,77.0431 101.5,76.5C 103.167,76.5 104.833,76.5 106.5,76.5C 106.082,77.2216 105.416,77.7216 104.5,78C 105.094,78.4643 105.761,78.631 106.5,78.5C 102.882,78.6908 99.2149,78.6908 95.5,78.5C 95.7373,77.209 95.404,76.209 94.5,75.5C 94.281,74.325 94.6143,73.325 95.5,72.5C 96.1667,73.8333 96.8333,75.1667 97.5,76.5C 98.6662,71.497 98.6662,66.497 97.5,61.5C 99.099,61.2322 100.432,61.5655 101.5,62.5 Z"/></g>
<g><path style="opacity:0.733" fill="#1843a4" d="M 122.5,62.5 C 123.71,62.9321 124.71,63.5987 125.5,64.5C 125.5,65.5 125.5,66.5 125.5,67.5C 124.213,71.0649 124.213,74.7316 125.5,78.5C 123.833,78.5 122.167,78.5 120.5,78.5C 122.37,73.4682 123.037,68.1348 122.5,62.5 Z"/></g>
<g><path style="opacity:0.953" fill="#5f76bd" d="M 47.5,96.5 C 46.5,96.5 45.5,96.5 44.5,96.5C 44.1667,95.1667 43.8333,95.1667 43.5,96.5C 42.8333,96.5 42.1667,96.5 41.5,96.5C 42.003,93.1542 42.6697,89.8208 43.5,86.5C 44.3857,87.325 44.719,88.325 44.5,89.5C 49.6089,90.1686 50.6089,92.5019 47.5,96.5 Z M 44.5,91.5 C 46.2252,91.8425 46.7252,92.8425 46,94.5C 44.9614,93.7562 44.4614,92.7562 44.5,91.5 Z"/></g>
<g><path style="opacity:0.867" fill="#6d86c4" d="M 77.5,96.5 C 76.8333,96.5 76.1667,96.5 75.5,96.5C 74.9094,95.8485 74.2427,95.1818 73.5,94.5C 74.8333,93.5 74.8333,92.5 73.5,91.5C 74.7862,89.4294 76.4529,89.0961 78.5,90.5C 78.5353,92.4425 78.2019,94.4425 77.5,96.5 Z"/></g>
<g><path style="opacity:0.624" fill="#617ec0" d="M 107.5,96.5 C 106.833,96.5 106.167,96.5 105.5,96.5C 105.167,95.1667 104.833,95.1667 104.5,96.5C 103.833,96.5 103.167,96.5 102.5,96.5C 102.167,95.1667 101.833,95.1667 101.5,96.5C 101.167,96.5 100.833,96.5 100.5,96.5C 101.248,94.4159 101.248,92.4159 100.5,90.5C 102.695,89.2309 104.861,89.2309 107,90.5C 106.653,92.6099 106.82,94.6099 107.5,96.5 Z M 103.5,91.5 C 105.646,91.6964 105.812,92.6964 104,94.5C 103.517,93.552 103.351,92.552 103.5,91.5 Z"/></g>
<g><path style="opacity:1" fill="#4d6bb8" d="M 85.5,93.5 C 85.6716,94.4916 85.3382,95.1583 84.5,95.5C 83.8333,95.5 83.5,95.8333 83.5,96.5C 83.1667,96.5 82.8333,96.5 82.5,96.5C 79.8672,95.3397 79.0339,93.3397 80,90.5C 82.1385,89.2309 84.3052,89.2309 86.5,90.5C 85.8728,91.4168 85.5394,92.4168 85.5,93.5 Z M 81.5,91.5 C 83.337,91.6395 83.6704,92.3061 82.5,93.5C 81.7025,93.0431 81.3691,92.3764 81.5,91.5 Z"/></g>
<g><path style="opacity:0.655" fill="#6583c3" d="M 62.5,96.5 C 62.1667,96.5 61.8333,96.5 61.5,96.5C 61.1667,95.1667 60.8333,95.1667 60.5,96.5C 59.8333,96.5 59.1667,96.5 58.5,96.5C 58.1667,95.1667 57.8333,95.1667 57.5,96.5C 56.8333,96.5 56.1667,96.5 55.5,96.5C 55.1667,95.1667 54.8333,95.1667 54.5,96.5C 53.8333,96.5 53.1667,96.5 52.5,96.5C 48.9395,90.3876 50.6061,88.3876 57.5,90.5C 56.1639,92.3746 56.6639,93.7079 59,94.5C 58.9877,91.3486 59.9877,88.6819 62,86.5C 61.1826,89.8177 61.3493,93.151 62.5,96.5 Z M 52.5,91.5 C 54.337,91.6395 54.6704,92.3061 53.5,93.5C 52.7025,93.0431 52.3691,92.3764 52.5,91.5 Z"/></g>
<g><path style="opacity:0.8" fill="#6680c2" d="M 67.5,96.5 C 66.8333,96.5 66.1667,96.5 65.5,96.5C 65.1667,95.1667 64.8333,95.1667 64.5,96.5C 64.1667,96.5 63.8333,96.5 63.5,96.5C 64.2186,94.2362 64.552,91.9029 64.5,89.5C 66.1667,89.5 67.8333,89.5 69.5,89.5C 69.6463,91.9424 68.813,92.6091 67,91.5C 66.6155,93.1966 66.7822,94.8632 67.5,96.5 Z"/></g>
<g><path style="opacity:0.012" fill="#a8b6da" d="M 85.5,93.5 C 86.609,93.5569 87.609,93.8902 88.5,94.5C 88.5,95.1667 88.5,95.8333 88.5,96.5C 88.1667,96.5 87.8333,96.5 87.5,96.5C 87.1667,95.1667 86.8333,95.1667 86.5,96.5C 85.8333,96.5 85.1667,96.5 84.5,96.5C 84.5,96.1667 84.5,95.8333 84.5,95.5C 85.3382,95.1583 85.6716,94.4916 85.5,93.5 Z"/></g>
<g><path style="opacity:0.847" fill="#6e81c3" d="M 91.5,96.5 C 91.1667,96.5 90.8333,96.5 90.5,96.5C 90.1667,95.1667 89.8333,95.1667 89.5,96.5C 89.1667,96.5 88.8333,96.5 88.5,96.5C 88.5,95.8333 88.5,95.1667 88.5,94.5C 88.5,91.8333 88.5,89.1667 88.5,86.5C 89.5,86.5 90.5,86.5 91.5,86.5C 90.3733,89.8573 90.3733,93.1906 91.5,96.5 Z"/></g>
<g><path style="opacity:0.439" fill="#657fc1" d="M 97.5,96.5 C 96.8333,96.5 96.1667,96.5 95.5,96.5C 92.9274,94.8683 92.2608,92.7016 93.5,90C 99.3185,89.4738 100.652,91.6405 97.5,96.5 Z M 94.5,92.5 C 95.4971,91.2875 96.4971,91.4542 97.5,93C 96.2805,94.7947 95.2805,94.6281 94.5,92.5 Z"/></g>
</svg>
