<svg version="1.1" id="Layer_1" xmlns="http://www.w3.org/2000/svg" xmlns:xlink="http://www.w3.org/1999/xlink" x="0px" y="0px"
	 width="100%" viewBox="0 0 1364 878" enable-background="new 0 0 1364 878" xml:space="preserve">
<path fill="#FFFFFF" opacity="1.000000" stroke="none" 
	d="
M790.921753,71.898277 
	C780.204956,80.495293 770.448792,89.533295 763.072021,100.842361 
	C757.448181,109.464096 753.459839,118.801003 752.064819,129.018158 
	C751.322021,134.459000 748.704590,138.053986 744.261414,141.059601 
	C729.012085,151.374985 717.270203,164.729401 710.100708,181.852448 
	C709.428711,183.457413 708.957458,185.146408 709.339478,187.582153 
	C711.395935,186.112442 713.527283,184.736115 715.497009,183.158188 
	C731.102173,170.657394 748.334595,161.586243 768.292603,158.502930 
	C775.688477,157.360336 783.224182,157.124786 790.621338,155.988556 
	C817.412048,151.873428 833.020874,135.096252 835.263245,108.099167 
	C835.625305,103.740601 835.314087,99.326118 835.314087,94.937477 
	C834.794373,94.722595 834.274719,94.507713 833.755005,94.292824 
	C832.154541,96.627510 830.403503,98.874237 828.979553,101.312012 
	C822.603516,112.227821 814.997803,122.023994 804.233215,128.998367 
	C796.264465,134.161362 787.683838,136.498535 778.102783,135.132797 
	C773.992432,134.546906 772.309937,132.440247 773.217041,128.748871 
	C774.116577,125.088394 774.945557,120.883720 777.279907,118.200500 
	C784.560974,109.831459 792.081726,101.548851 800.392517,94.236259 
	C807.093933,88.339729 815.139221,83.987488 822.465515,78.777435 
	C826.597717,75.838821 828.927307,76.929161 831.629944,81.031952 
	C858.567200,121.924309 869.589294,167.231262 869.359558,215.687408 
	C869.189697,251.517838 863.585632,286.472900 850.288879,319.816559 
	C830.605164,369.176300 801.738647,412.079315 758.268127,443.715485 
	C737.965332,458.491058 715.479736,469.140900 689.800354,470.426605 
	C662.097595,471.813690 637.386475,462.471649 614.511963,447.653534 
	C591.813477,432.949432 573.939209,413.164429 557.603271,391.988251 
	C508.968994,328.943787 492.072449,257.220795 500.354950,178.875717 
	C504.100952,143.441864 516.093079,110.896416 535.727112,81.120422 
	C538.447571,76.994667 540.698730,76.310745 544.964355,78.920097 
	C563.180908,90.063354 579.742126,102.994568 592.223145,120.613914 
	C594.537476,123.881020 596.434082,127.187508 594.270386,131.194962 
	C592.064453,135.280762 588.129456,135.993576 583.971252,135.936569 
	C574.532715,135.807175 566.531189,131.853500 559.369812,126.130722 
	C550.146667,118.760406 542.998901,109.586166 537.094666,99.402946 
	C536.075806,97.645699 534.833984,96.017769 533.270752,93.701256 
	C532.571533,95.390625 532.033752,96.112946 531.998230,96.859169 
	C530.777954,122.511398 539.076660,146.503204 569.205322,153.957794 
	C577.739563,156.069397 586.504578,157.589996 595.255005,158.417587 
	C615.943115,160.374191 633.391357,169.531143 649.683044,181.593689 
	C652.458496,183.648697 655.206482,185.740891 659.104065,187.180176 
	C658.723877,185.761673 658.511292,184.271271 657.938171,182.935562 
	C650.450012,165.483063 638.946655,151.265564 623.078064,140.812729 
	C618.560669,137.837067 616.014038,134.373505 615.155945,128.938248 
	C612.046204,109.241844 601.309937,93.762703 586.807922,80.812370 
	C578.749634,73.616333 569.973999,67.211761 561.394043,60.616547 
	C556.573303,56.910988 556.368652,55.956379 561.072144,52.066605 
	C608.302307,13.007562 662.213135,-0.557505 722.265137,10.543886 
	C754.098694,16.428747 781.956543,30.864286 806.235718,52.220135 
	C810.706604,56.152672 810.595398,56.952301 805.915283,60.481853 
	C800.994141,64.193169 796.099243,67.939400 790.921753,71.898277 
M648.889160,259.354004 
	C654.581177,252.118988 657.595825,243.716995 659.768127,234.898666 
	C660.120972,233.466629 661.304138,231.467926 662.433899,231.216614 
	C663.551086,230.968124 665.377380,232.336700 666.390015,233.452209 
	C671.618164,239.211746 672.391663,246.371201 667.453552,253.153870 
	C663.175659,259.029572 657.943359,264.260254 652.794739,269.439941 
	C645.869568,276.406952 638.421265,282.857788 631.566956,289.890198 
	C625.211365,296.410919 619.958740,303.930603 618.754333,313.176849 
	C616.888855,327.497894 622.054321,338.946320 634.294128,346.995056 
	C636.494629,348.442078 638.521301,350.153412 640.628235,351.742737 
	C640.325928,352.467773 640.023682,353.192810 639.721375,353.917847 
	C617.592163,350.627777 595.463013,347.337738 572.998962,343.997894 
	C573.137573,345.469208 573.051453,346.169403 573.279907,346.744629 
	C579.423340,362.215393 585.208252,377.845367 591.908875,393.072113 
	C596.278625,403.002319 602.134827,412.398407 611.244202,418.781158 
	C630.583679,432.332062 651.170227,443.566437 674.151550,449.736542 
	C682.169189,451.889099 690.282776,452.129211 698.133972,448.542603 
	C711.604797,442.388794 725.257385,436.609161 738.544189,430.083069 
	C753.489014,422.742645 766.547363,412.796997 773.611877,397.216492 
	C781.167236,380.553619 787.758667,363.453278 794.721924,346.523773 
	C794.992554,345.865875 794.756409,344.999573 794.756409,343.871460 
	C772.186340,346.989746 749.947632,350.062256 727.708984,353.134766 
	C727.477356,352.483276 727.245728,351.831757 727.014160,351.180267 
	C730.091187,348.855286 733.137451,346.488220 736.250793,344.212891 
	C747.442810,336.033447 752.882141,320.545502 747.451538,307.794952 
	C744.408752,300.650665 739.505859,293.927460 734.158630,288.214966 
	C723.808228,277.157654 712.506409,266.994629 701.687317,256.370941 
	C695.689758,250.481735 694.233643,242.142792 698.563477,236.491425 
	C700.232361,234.313141 703.231384,233.153961 705.624451,231.530533 
	C706.600159,233.684036 707.647034,235.809128 708.523865,238.002182 
	C709.014709,239.229980 709.198669,240.577576 709.563721,241.859009 
	C714.423889,258.919434 724.963013,270.254456 742.872070,272.999878 
	C751.854248,274.376770 761.111389,273.863342 770.192871,274.737701 
	C773.773682,275.082489 777.385986,276.518005 780.685913,278.084595 
	C788.893860,281.981110 796.550842,287.471893 805.111023,290.107208 
	C826.208008,296.602142 842.668396,288.002716 850.960754,267.759186 
	C857.134705,252.687454 859.372437,236.951492 859.075745,220.821426 
	C858.936462,213.245758 858.065857,205.683502 857.526733,198.115173 
	C857.013733,198.103027 856.500671,198.090881 855.987671,198.078735 
	C855.063049,203.085403 854.181885,208.100571 853.205627,213.097153 
	C850.184265,228.560898 845.993713,243.537415 836.565063,256.605255 
	C829.719482,266.093048 821.524353,271.705139 809.338867,267.852386 
	C806.748779,267.033478 804.276611,265.841553 801.750122,264.821472 
	C803.327026,262.452057 804.478699,259.594208 806.549011,257.791412 
	C821.492798,244.778763 829.370544,228.583252 829.409729,208.690521 
	C829.426697,200.065689 832.052368,192.597366 837.462585,185.635208 
	C849.809204,169.746750 853.291260,151.467300 850.209473,131.795975 
	C849.945984,130.113922 849.168823,128.512344 848.630310,126.873360 
	C848.131531,126.773491 847.632751,126.673622 847.133972,126.573753 
	C845.916565,128.945099 844.506104,131.238647 843.513855,133.700729 
	C838.129456,147.061798 828.994080,156.981277 816.522339,164.088608 
	C802.170715,172.267227 786.431946,176.555115 770.699219,180.885269 
	C741.821594,188.833313 713.603943,198.324875 689.541565,216.974854 
	C684.916931,220.559280 681.650391,220.222458 677.329895,216.712463 
	C661.330872,203.714783 643.006775,195.325897 623.311523,189.405441 
	C603.710571,183.513321 584.418762,176.600739 564.880615,170.489838 
	C543.592102,163.831482 529.475891,150.022156 522.042175,129.130768 
	C521.476746,127.541840 520.549438,126.081680 519.184631,123.348892 
	C518.251953,125.910683 517.622620,127.046265 517.431946,128.251266 
	C513.941406,150.313324 517.428650,170.763489 531.803650,188.537430 
	C535.513916,193.124969 537.699463,198.031586 537.733398,204.024948 
	C537.863892,227.098419 545.043213,246.879929 564.640076,260.772308 
	C567.851440,263.048950 567.276184,265.091003 563.822876,266.531403 
	C554.920593,270.244629 545.862488,270.797394 538.442139,264.093506 
	C533.256592,259.408661 528.747192,253.514847 525.383972,247.368576 
	C518.195251,234.231155 515.130798,219.636688 512.572083,204.979599 
	C512.202576,202.862701 511.488953,200.805878 510.934540,198.721268 
	C509.769073,199.461548 509.414795,200.040512 509.371399,200.641907 
	C508.108612,218.132645 507.508881,235.617722 511.341583,252.898621 
	C513.750366,263.759399 517.693848,273.970490 525.500122,282.251251 
	C530.965820,288.049194 537.578735,291.532074 545.654053,292.074585 
	C560.328857,293.060455 573.330811,288.332916 584.854614,279.772400 
	C590.331055,275.704193 595.717468,273.644012 602.428711,274.922455 
	C604.699646,275.355072 607.076233,275.320740 609.406006,275.341919 
	C624.496704,275.479095 638.138672,271.923248 648.889160,259.354004 
z"/>
<path fill="#FFFFFF" opacity="1.000000" stroke="none" 
	d="
M976.155884,602.007080 
	C976.184631,598.509888 976.195190,595.510986 976.244324,592.512756 
	C976.336426,586.893127 974.856628,581.959106 970.104492,578.475647 
	C967.230042,576.368591 967.626465,574.610779 970.419373,572.738281 
	C978.101257,567.587952 988.363770,564.073914 996.656860,574.338074 
	C999.174011,577.453430 1001.691040,575.673584 1004.173035,574.300964 
	C1015.837463,567.850159 1028.295166,565.719116 1041.335449,568.182617 
	C1052.558472,570.302856 1061.146118,576.464294 1064.759888,587.567444 
	C1068.529419,599.148926 1065.620850,609.618835 1056.986938,618.289429 
	C1053.887207,621.402405 1050.488403,624.217590 1046.288208,628.017212 
	C1050.441772,629.681091 1053.458740,630.871216 1056.461792,632.095825 
	C1071.553833,638.250244 1082.801514,647.934875 1085.006470,665.048035 
	C1087.229248,682.299988 1082.252319,697.011414 1067.964233,707.778503 
	C1050.345093,721.055847 1023.136047,716.898254 1010.492371,699.077454 
	C1010.219177,698.692322 1010.169495,698.148621 1009.989563,697.599609 
	C1011.795288,694.917664 1014.100464,693.918274 1016.521667,696.502014 
	C1028.262573,709.031189 1041.568237,705.867432 1050.738525,699.456909 
	C1060.688477,692.501587 1064.904663,677.543701 1060.630981,664.296509 
	C1055.021362,646.907776 1040.709473,638.555054 1022.539917,641.829956 
	C1020.403748,642.214966 1018.049561,641.390503 1015.796448,641.126709 
	C1017.274170,639.099548 1018.351379,636.500000 1020.295654,635.139709 
	C1031.441284,627.341614 1040.856201,618.221436 1045.388794,604.968323 
	C1048.063965,597.145874 1047.547729,589.548889 1043.670166,582.253540 
	C1039.909546,575.178589 1034.408936,572.861755 1026.981689,575.957886 
	C1009.102661,583.410828 999.241760,597.418884 998.340454,616.364014 
	C997.082764,642.801697 997.242615,669.310669 997.018066,695.791077 
	C996.953674,703.376282 999.802063,705.533264 1009.614807,706.163452 
	C1012.307495,706.336365 1014.106995,707.321411 1013.429565,709.943054 
	C1013.000732,711.602844 1011.314880,713.184570 1009.797302,714.223877 
	C1008.882263,714.850464 1007.209045,714.392944 1005.876770,714.383972 
	C991.383301,714.286804 976.889648,714.200867 962.396423,714.075195 
	C937.576843,713.859985 912.757568,713.624023 887.938354,713.375671 
	C886.310242,713.359375 884.683899,713.163879 882.703491,713.027344 
	C883.055542,708.696228 884.746399,706.394775 889.015015,705.940125 
	C900.225098,704.745911 904.083008,700.717468 904.260620,689.648376 
	C904.800415,656.005676 905.195374,622.360535 905.641907,588.716370 
	C905.702454,584.155762 903.916748,580.779053 899.715210,578.582458 
	C896.045593,576.663940 895.847839,574.196899 899.661804,572.734741 
	C905.124573,570.640381 910.978271,568.794800 916.753784,568.482117 
	C923.993591,568.090210 927.602356,572.565369 927.580750,579.908752 
	C927.532227,596.401245 927.401489,612.893555 927.315918,629.385986 
	C927.209595,649.877502 927.087830,670.368896 927.028137,690.860535 
	C927.003174,699.437195 929.545959,702.237976 937.434021,705.008789 
	C946.286072,708.118103 954.909119,707.967896 963.831482,705.585083 
	C971.734253,703.474609 974.702271,700.171875 974.827637,691.941284 
	C975.281433,662.129578 975.714417,632.317627 976.155884,602.007080 
z"/>
<path fill="#FFFFFF" opacity="1.000000" stroke="none" 
	d="
M436.547363,667.004639 
	C436.618225,642.515930 436.631622,618.527161 436.796051,594.539429 
	C436.837921,588.432556 435.472137,583.035156 430.977753,578.654419 
	C428.477295,576.217163 428.363159,573.769287 432.031006,572.686646 
	C437.057465,571.202759 442.194916,569.565186 447.364960,569.230225 
	C453.960510,568.803040 456.108154,570.466370 456.701477,576.927979 
	C457.778381,588.655701 457.990479,600.463806 458.513245,612.240540 
	C458.627228,614.808655 458.529877,617.386108 458.529877,621.202026 
	C461.497314,619.403992 463.348511,618.460205 465.006042,617.250977 
	C485.984528,601.946777 508.289185,599.877869 531.926270,610.366760 
	C540.672791,614.248047 540.693481,614.183716 540.329590,604.397278 
	C540.174866,600.236023 540.128601,596.069885 539.914307,591.912048 
	C539.532471,584.505859 536.312439,580.766235 529.031006,579.059143 
	C526.279846,578.414062 523.407715,578.027832 520.851746,576.920898 
	C519.655640,576.402954 518.515625,574.487061 518.435547,573.140259 
	C518.388184,572.342957 520.367188,571.235046 521.609558,570.618164 
	C522.433655,570.208923 523.566345,570.366211 524.561096,570.363770 
	C543.220947,570.317932 561.880859,570.283813 580.540710,570.257629 
	C581.537598,570.256226 582.862244,569.963928 583.461121,570.476624 
	C584.590332,571.443176 585.947449,572.877869 585.987183,574.156067 
	C586.020447,575.224304 584.492493,576.994019 583.334900,577.322693 
	C579.994629,578.271362 576.420044,578.385803 573.068298,579.304932 
	C565.915894,581.266235 563.311829,585.008362 563.256348,592.324890 
	C563.084534,614.974609 562.387268,637.632202 562.788086,660.270813 
	C563.139160,680.103027 554.486816,695.146790 540.276978,707.746948 
	C532.360901,714.766418 523.451294,720.262756 513.406433,723.739319 
	C511.118164,724.531250 508.667358,724.853638 506.291351,725.392151 
	C505.976654,725.024719 505.661957,724.657349 505.347290,724.289917 
	C506.582825,722.557190 507.599396,720.601746 509.093719,719.132141 
	C514.196594,714.113525 519.663208,709.455383 524.640442,704.319885 
	C546.219360,682.054932 544.054260,643.764893 520.218384,623.966064 
	C501.594971,608.496887 472.441711,616.059387 462.897949,639.321716 
	C460.312408,645.623779 459.074615,652.787415 458.734009,659.630981 
	C458.197021,670.419250 458.834412,681.274780 459.177917,692.095398 
	C459.481995,701.673340 463.848083,706.085815 473.520020,707.044861 
	C474.182434,707.110596 474.850708,707.158508 475.515564,707.151550 
	C478.626587,707.119019 480.789673,708.153381 480.555206,711.738098 
	C480.332489,715.142883 477.803802,714.940369 475.420929,714.895691 
	C466.595490,714.730164 457.770477,714.536316 448.944641,714.395996 
	C438.950714,714.237000 428.950989,714.255310 418.966766,713.864502 
	C417.265503,713.797791 415.629547,712.064697 413.963409,711.101440 
	C415.399017,710.005981 416.677338,708.364929 418.294342,707.898865 
	C435.759705,702.864624 435.784271,702.915405 436.238037,684.487244 
	C436.377380,678.827393 436.445343,673.165833 436.547363,667.004639 
z"/>
<path fill="#FFFFFF" opacity="1.000000" stroke="none" 
	d="
M1100.241211,713.389587 
	C1098.274658,713.345398 1096.481323,713.804260 1095.346313,713.139343 
	C1093.664917,712.154419 1092.450317,710.372437 1091.037109,708.929688 
	C1092.410034,707.665283 1093.723022,706.323547 1095.193604,705.185364 
	C1095.612061,704.861572 1096.490234,705.158020 1097.155029,705.122498 
	C1107.239380,704.583130 1112.990112,699.110291 1113.115845,688.992920 
	C1113.366333,668.832458 1113.244141,648.667297 1113.263306,628.504089 
	C1113.275635,615.505920 1113.147949,602.506104 1113.326538,589.510376 
	C1113.392822,584.685120 1112.463989,580.634949 1108.198364,577.821777 
	C1105.182983,575.833130 1105.700439,573.774841 1108.461304,572.075317 
	C1115.548950,567.712219 1125.958496,564.007324 1133.613647,573.549011 
	C1136.285889,576.879822 1138.802368,575.051453 1141.503784,573.583008 
	C1157.169067,565.068054 1173.542236,563.691956 1190.214966,569.828674 
	C1209.969482,577.099548 1220.224731,594.476685 1218.518433,616.486511 
	C1217.190430,633.616699 1210.139038,647.051392 1194.288208,655.105652 
	C1189.279541,657.650635 1189.343262,658.278320 1192.864380,662.892883 
	C1202.806152,675.921692 1213.645142,688.025635 1227.263184,697.420166 
	C1231.726807,700.499390 1231.527832,702.329895 1227.012329,704.998352 
	C1222.858521,707.453125 1218.627808,709.777405 1214.471802,712.228455 
	C1210.274536,714.703735 1206.520508,714.274597 1203.295776,710.593506 
	C1186.177368,691.053162 1169.041260,671.527771 1152.080444,651.851318 
	C1150.989746,650.585938 1151.319824,648.095764 1150.989014,646.175293 
	C1152.797363,646.156250 1154.726440,645.720093 1156.389282,646.202332 
	C1160.205811,647.309448 1163.804077,649.227539 1167.650146,650.161560 
	C1175.637939,652.101624 1182.792358,649.979187 1187.714355,643.398438 
	C1197.261963,630.633484 1201.328491,616.226746 1196.924683,600.573242 
	C1191.178467,580.147888 1166.755981,570.337036 1149.648315,581.152649 
	C1140.713501,586.801331 1136.532471,595.553345 1136.362061,605.618530 
	C1135.860229,635.257874 1135.988892,664.907776 1135.841064,694.553345 
	C1135.816650,699.452515 1138.317261,702.294067 1142.847046,703.593994 
	C1145.885620,704.465942 1148.953247,705.239380 1151.980103,706.148926 
	C1154.538940,706.917786 1157.811035,707.697754 1156.807739,711.124329 
	C1156.439453,712.382874 1153.156250,713.460754 1151.194458,713.474854 
	C1134.367065,713.595703 1117.537598,713.453613 1100.241211,713.389587 
z"/>
<path fill="#FFFFFF" opacity="1.000000" stroke="none" 
	d="
M231.835114,712.479614 
	C231.196671,711.862366 230.785873,711.530945 230.562332,711.101990 
	C227.105057,704.466553 227.236526,704.769714 219.860962,707.802124 
	C198.794907,716.463196 177.778091,717.785461 157.600998,705.387329 
	C144.549362,697.367554 137.371735,684.920837 138.097046,669.911255 
	C138.797256,655.421204 142.014648,641.014893 144.651657,626.668396 
	C146.755280,615.223816 149.567108,603.905212 152.226349,592.568604 
	C153.588226,586.762878 153.520447,581.354065 149.483276,576.525574 
	C147.245850,573.849548 148.046021,571.911377 151.172455,570.911316 
	C154.336380,569.899353 157.523132,568.776062 160.787338,568.294556 
	C170.506470,566.860962 176.006821,571.802490 174.928360,581.644165 
	C173.969635,590.393250 172.101730,599.051453 170.444016,607.713257 
	C167.192825,624.701233 163.478455,641.609131 160.655533,658.665894 
	C159.643417,664.781250 160.060715,671.306885 160.864059,677.510803 
	C162.282257,688.463074 168.845886,695.500427 179.419098,698.691040 
	C189.889969,701.850830 200.464447,701.895203 210.959091,699.014709 
	C221.847015,696.026306 229.474731,686.226929 229.805313,673.468811 
	C230.305573,654.161255 230.027557,634.833069 230.039154,615.513611 
	C230.043854,607.683655 229.929367,599.853760 229.889297,592.023743 
	C229.843338,583.044373 228.351440,581.266541 219.997696,578.216553 
	C216.617020,576.982178 213.627625,574.676086 210.460175,572.857666 
	C210.592010,572.219360 210.723846,571.581055 210.855682,570.942749 
	C212.778702,570.374573 214.697144,569.331421 216.625427,569.312988 
	C232.932343,569.156616 249.241058,569.175049 265.549225,569.174805 
	C267.988281,569.174744 270.529785,569.411743 270.287170,572.784973 
	C270.076843,575.708923 268.739807,578.189636 265.375793,577.903320 
	C254.509995,576.978638 250.974472,584.257568 250.977524,593.763611 
	C250.987946,626.253174 250.845810,658.742798 250.851974,691.232361 
	C250.853973,701.737122 254.605469,705.819519 265.333771,706.993835 
	C268.567474,707.347778 270.667877,708.729004 270.192902,711.817688 
	C270.033691,712.852844 267.036774,714.091858 265.307770,714.137817 
	C256.483215,714.372131 247.647156,714.346680 238.819626,714.177002 
	C236.587860,714.134094 234.372681,713.228943 231.835114,712.479614 
z"/>
<path fill="#FFFFFF" opacity="1.000000" stroke="none" 
	d="
M1322.999756,713.583008 
	C1295.844849,713.440247 1269.190063,713.297852 1242.535156,713.153259 
	C1241.702393,713.148743 1240.613525,713.450562 1240.086426,713.040710 
	C1238.690430,711.955078 1236.995483,710.726196 1236.521973,709.209961 
	C1236.293701,708.479065 1238.351074,706.397156 1239.716553,705.930603 
	C1243.152344,704.756775 1246.879761,704.435425 1250.312988,703.255859 
	C1255.551147,701.456177 1258.235474,697.756531 1258.234985,691.929932 
	C1258.231934,656.774719 1258.274170,621.618896 1258.534790,586.464966 
	C1258.587280,579.394287 1255.282471,574.552368 1249.859741,570.771057 
	C1257.465088,562.596252 1271.815186,559.051636 1280.279541,567.036804 
	C1283.729614,570.291626 1286.800903,568.797668 1290.285522,567.213684 
	C1308.949707,558.729614 1326.843750,559.866760 1343.576416,572.129639 
	C1358.490845,583.059937 1352.464478,595.429626 1342.227051,603.917480 
	C1339.780029,605.946350 1338.237915,605.177856 1338.121704,601.974182 
	C1338.073486,600.648438 1338.173706,599.309998 1338.299683,597.986267 
	C1339.760498,582.633728 1330.665649,572.424561 1315.000610,572.265259 
	C1301.044189,572.123230 1292.414307,580.426208 1286.765015,591.950867 
	C1280.569336,604.590027 1281.251343,618.489685 1281.301147,632.127930 
	C1281.305298,633.248169 1283.025024,635.062683 1284.243652,635.366333 
	C1293.546021,637.684204 1304.919922,635.912109 1308.243042,624.409302 
	C1308.693726,622.849548 1310.732544,621.748535 1312.035889,620.435059 
	C1312.892090,622.029419 1314.473145,623.617432 1314.487061,625.219116 
	C1314.581543,636.041138 1314.380859,646.866638 1314.169556,657.688965 
	C1314.142700,659.064636 1313.500366,660.428345 1313.143311,661.797607 
	C1312.667358,661.947205 1312.191528,662.096802 1311.715698,662.246460 
	C1310.110962,659.693848 1307.653320,657.323181 1307.062988,654.554260 
	C1305.353394,646.536987 1299.694458,644.345398 1292.802856,644.044556 
	C1279.585205,643.467529 1280.996948,644.367554 1281.223877,654.613098 
	C1281.467041,665.602844 1281.651123,676.595581 1282.063110,687.579407 
	C1282.438965,697.602844 1285.919556,701.410889 1295.759521,703.458069 
	C1306.356934,705.662781 1316.922241,706.308594 1327.255859,702.424072 
	C1340.333130,697.508118 1347.104980,686.855286 1351.925781,674.553406 
	C1352.288696,673.627258 1352.363159,672.512085 1352.934326,671.760315 
	C1353.932251,670.446838 1355.212280,669.347717 1356.374023,668.158752 
	C1357.275757,669.688965 1359.017578,671.259216 1358.946899,672.743164 
	C1358.369263,684.883789 1357.438354,697.007446 1356.650024,709.138489 
	C1356.414307,712.767151 1354.372803,713.849976 1350.985596,713.788025 
	C1341.825562,713.620483 1332.661987,713.638672 1322.999756,713.583008 
z"/>
<path fill="#FFFFFF" opacity="1.000000" stroke="none" 
	d="
M657.966797,596.868042 
	C671.691711,629.263733 685.317261,661.288269 698.864014,693.346130 
	C700.863708,698.078430 703.392944,701.937683 708.318481,704.346069 
	C712.990723,706.630615 712.960571,709.020630 708.370361,711.140930 
	C703.603821,713.342651 698.552551,715.255310 693.423157,716.263977 
	C686.546814,717.616211 682.501587,715.022156 679.722839,708.329224 
	C674.870178,696.640991 670.056519,684.930420 665.572144,673.098328 
	C663.701599,668.162903 660.847290,666.127441 655.500244,666.216125 
	C641.174500,666.453857 626.840149,666.327759 612.511719,666.145691 
	C607.715881,666.084717 604.790771,667.796509 603.067200,672.458313 
	C600.184692,680.254761 596.737854,687.840698 593.650513,695.563965 
	C591.689880,700.468750 593.268250,703.725769 598.336731,705.068298 
	C601.376038,705.873291 604.693665,705.791687 607.596375,706.880920 
	C609.111816,707.449585 610.000427,709.688904 611.172119,711.173584 
	C609.839783,712.076599 608.519287,713.744202 607.173279,713.765015 
	C592.679321,713.989807 578.179871,714.055115 563.686829,713.837585 
	C562.220398,713.815552 560.786011,711.658447 559.336731,710.492249 
	C560.791321,709.064087 562.182312,706.478516 563.710815,706.394470 
	C574.053345,705.825623 580.056274,700.156616 583.852783,691.047241 
	C596.336914,661.092712 608.961121,631.196533 621.537292,601.280396 
	C623.149963,597.444153 624.645020,593.548340 626.465637,589.812195 
	C628.668640,585.291504 627.988403,581.608826 624.344116,578.110352 
	C620.759705,574.669250 621.093445,573.397400 625.612061,571.520264 
	C627.453064,570.755371 629.358215,570.084412 631.293823,569.617798 
	C642.602722,566.891541 646.195251,568.798279 650.585144,579.511536 
	C652.920593,585.211121 655.417786,590.844421 657.966797,596.868042 
M640.491699,655.626831 
	C645.875671,655.626831 651.259644,655.626831 657.902222,655.626831 
	C649.868530,635.658691 642.438599,617.191162 635.008667,598.723633 
	C634.251404,598.704163 633.494202,598.684692 632.736938,598.665222 
	C625.219604,617.189514 617.702332,635.713806 609.621460,655.626648 
	C620.623291,655.626648 630.059265,655.626648 640.491699,655.626831 
z"/>
<path fill="#FFFFFF" opacity="1.000000" stroke="none" 
	d="
M372.224182,581.633179 
	C356.545258,572.485901 340.800659,570.691833 325.124390,580.222351 
	C314.490753,586.687195 308.877991,597.142883 305.446350,608.756104 
	C298.524231,632.181641 298.534393,655.578796 308.280029,678.143799 
	C319.353149,703.782410 344.461426,712.772278 370.030090,701.116760 
	C381.347992,695.957336 390.572266,688.277344 397.400085,677.812012 
	C398.036926,676.835876 398.511139,675.584717 399.410400,674.987915 
	C400.804352,674.062866 402.696167,672.810425 404.012451,673.142334 
	C405.388031,673.489197 407.370514,675.631958 407.269775,676.837769 
	C406.976044,680.352661 406.713593,684.463074 404.786835,687.159363 
	C378.346191,724.160278 331.458618,725.528076 303.193970,704.365356 
	C286.577179,691.923828 278.832825,674.361389 276.600128,654.215881 
	C273.944031,630.250061 279.180359,608.205383 294.032288,588.890320 
	C309.350067,568.969299 337.358337,560.075684 363.378967,567.632935 
	C372.523651,570.288879 381.245636,574.778198 389.717438,579.266846 
	C398.248077,583.786621 400.298981,592.185852 396.077240,600.942078 
	C393.271515,606.761353 387.489594,611.610901 382.508362,612.548279 
	C382.962891,606.881287 385.087616,600.584534 383.423737,595.536438 
	C381.711151,590.340576 376.304626,586.362305 372.224182,581.633179 
z"/>
<path fill="#FFFFFF" opacity="1.000000" stroke="none" 
	d="
M776.648254,649.000061 
	C776.644470,628.508606 777.006470,608.504883 776.357971,588.533997 
	C776.189697,583.353821 772.859863,578.276367 770.721497,572.439819 
	C776.412292,569.343811 783.704773,567.126587 791.386536,567.840820 
	C796.364380,568.303589 798.437439,572.818970 798.742920,577.337097 
	C799.315186,585.800842 799.517700,594.302185 799.533264,602.788574 
	C799.583130,629.942322 799.642151,657.098511 799.290405,684.248474 
	C799.220947,689.610107 797.359863,694.952637 796.277771,700.294373 
	C795.998169,701.674500 795.539185,703.018250 794.869202,705.438293 
	C804.790039,705.438293 813.899414,705.795593 822.965393,705.322449 
	C829.898987,704.960449 836.903992,704.082153 843.653442,702.486694 
	C855.833923,699.607239 863.355591,691.339905 867.466675,679.753845 
	C868.467468,676.933350 869.000610,673.828979 870.559937,671.369324 
	C871.474426,669.926819 873.989807,669.499084 875.785156,668.614990 
	C876.389465,670.015259 877.582825,671.448853 877.505737,672.810547 
	C876.837830,684.611511 875.896362,696.396606 875.137756,708.192993 
	C874.867615,712.394653 872.703857,713.929138 868.646240,713.922485 
	C832.657471,713.863098 796.668457,713.888062 760.679565,713.881836 
	C759.848145,713.881714 758.671631,714.143433 758.247925,713.707581 
	C756.787781,712.205444 755.261047,710.580444 754.504456,708.702271 
	C754.292114,708.175110 756.468323,706.084595 757.847229,705.643311 
	C760.676514,704.737976 763.741150,704.602600 766.648804,703.901062 
	C773.721558,702.194519 776.127563,699.286255 776.239014,691.976440 
	C776.454712,677.818909 776.513550,663.658997 776.648254,649.000061 
z"/>
<path fill="#FFFFFF" opacity="1.000000" stroke="none" 
	d="
M52.999676,714.384766 
	C39.833317,714.384521 27.166950,714.372925 14.500636,714.393921 
	C11.874779,714.398315 9.359436,714.316650 8.827113,710.953125 
	C8.373827,708.089050 8.963409,705.999634 12.447787,705.799683 
	C14.766839,705.666565 17.141613,705.537720 19.367905,704.943909 
	C25.040022,703.430725 30.832813,699.678101 30.787333,690.773376 
	C30.617949,657.610718 30.829229,624.445740 31.010944,591.282227 
	C31.040501,585.888184 29.957638,581.026672 26.290773,576.964294 
	C23.552231,573.930420 24.782156,572.290955 28.129023,571.309509 
	C31.483301,570.325867 34.823139,569.279297 38.211384,568.427795 
	C46.213852,566.416565 52.799553,571.105469 52.901867,579.448303 
	C53.247173,607.605774 53.318996,635.766663 53.488640,663.926270 
	C53.492645,664.591064 53.412075,665.256104 53.379524,665.921509 
	C52.752701,678.735535 55.646755,691.911865 48.250580,705.096924 
	C57.426777,705.547119 65.494370,706.459473 73.522392,706.190491 
	C81.444794,705.925171 89.535698,705.286438 97.180817,703.346252 
	C110.406731,699.989746 118.195992,690.593994 121.879547,677.650269 
	C122.061386,677.011292 122.163734,676.349548 122.349831,675.711975 
	C123.346298,672.298218 124.239197,668.346985 128.964966,669.224609 
	C133.940552,670.148621 131.503113,674.268677 131.365356,677.012390 
	C130.839294,687.491028 129.859177,697.947327 129.364868,708.426880 
	C129.155930,712.856140 127.554604,714.375916 122.993408,714.343018 
	C99.830139,714.175720 76.664497,714.338074 52.999676,714.384766 
z"/>
<path fill="#FFFFFF" opacity="1.000000" stroke="none" 
	d="
M412.210663,796.499756 
	C412.465729,804.095032 412.708862,811.241577 413.004150,818.385986 
	C413.021881,818.814819 413.455933,819.226501 414.005676,820.186462 
	C416.853424,819.158691 419.686707,817.896729 422.646240,817.108887 
	C436.680817,813.372864 449.385071,822.976807 451.673950,838.938782 
	C453.621948,852.523621 446.963501,865.582336 434.738678,871.730286 
	C432.823822,872.693298 430.494843,872.832764 428.357330,873.353027 
	C428.138763,872.971008 427.920166,872.588928 427.701599,872.206909 
	C429.073669,870.663330 430.410736,869.086792 431.823578,867.581421 
	C441.530457,857.237793 442.974854,842.179565 435.389191,830.201416 
	C432.578247,825.762878 427.027893,823.504517 421.997528,824.752502 
	C415.618439,826.335144 413.056732,829.373901 412.737823,835.943848 
	C412.536163,840.098877 412.430573,844.260193 412.372406,848.420044 
	C412.289917,854.320251 413.791443,859.609680 418.417053,863.680420 
	C419.089355,864.272156 419.488770,865.173889 420.433929,866.537231 
	C411.472565,866.537231 403.203888,866.537231 394.304535,866.537231 
	C394.991119,865.034485 395.143158,863.900330 395.783752,863.426208 
	C401.049194,859.528992 402.168182,854.177246 401.984680,847.999756 
	C401.470825,830.703430 401.197357,813.399658 400.887726,796.097778 
	C400.826813,792.695679 399.080353,788.268738 405.233795,788.134521 
	C410.316071,788.023682 411.866180,789.718750 412.210663,796.499756 
z"/>
<path fill="#FFFFFF" opacity="1.000000" stroke="none" 
	d="
M743.536621,820.434753 
	C750.543945,816.272644 757.758606,816.528076 765.165344,817.242249 
	C769.846497,817.693665 774.636536,817.636414 779.325134,817.217957 
	C784.072754,816.794128 785.051819,817.745728 784.548828,822.643738 
	C783.667603,831.226013 782.653992,839.837524 782.559570,848.446228 
	C782.453369,858.123230 782.869446,858.127808 791.588257,861.522095 
	C790.885620,865.884033 788.010193,867.571167 783.959778,867.527222 
	C775.160400,867.431824 766.361694,867.218079 757.564819,866.975342 
	C746.328003,866.665344 737.226685,859.669983 733.864624,848.857422 
	C730.493286,838.015442 734.066223,827.242493 743.536621,820.434753 
M766.226624,825.195251 
	C754.634766,819.548950 744.885620,825.580994 745.100708,838.269226 
	C745.126099,839.765259 745.221252,841.261353 745.206482,842.756714 
	C745.094238,854.162781 746.195129,854.705017 757.647217,860.574707 
	C764.342163,864.006042 770.985535,859.248596 770.876282,851.650696 
	C770.787903,845.501892 770.667725,839.325745 769.984314,833.226379 
	C769.692505,830.622009 767.932434,828.182190 766.226624,825.195251 
z"/>
<path fill="#FFFFFF" opacity="1.000000" stroke="none" 
	d="
M957.645630,856.117310 
	C959.071167,850.074707 960.408875,844.422974 961.904175,838.813354 
	C964.213867,830.148926 962.298828,826.929504 953.452515,824.987366 
	C951.832886,824.631714 950.193848,824.296204 948.546082,824.148987 
	C942.231628,823.584778 940.807922,824.980408 939.971008,831.432251 
	C938.521790,842.605286 939.426575,853.324341 945.242004,863.272888 
	C945.634094,863.943542 945.769165,864.764343 946.303528,866.340454 
	C938.052795,866.340454 930.268066,866.340454 921.644226,866.340454 
	C922.575256,864.684875 923.078674,863.117065 924.111633,862.072998 
	C927.940430,858.202698 928.821899,853.674622 928.473328,848.367615 
	C927.884888,839.409668 928.013123,830.406799 927.554016,821.437439 
	C927.335144,817.161438 928.921387,815.967407 933.082642,816.161621 
	C939.357117,816.454407 945.719971,816.591187 951.944214,815.893188 
	C969.626099,813.910583 977.419006,829.837708 973.382324,842.311951 
	C970.509094,851.191040 967.956421,859.760193 971.241394,868.995789 
	C971.373962,869.368652 971.021851,869.913940 970.902649,870.352844 
	C962.704834,870.586121 958.018982,865.669800 957.645630,856.117310 
z"/>
<path fill="#FFFFFF" opacity="1.000000" stroke="none" 
	d="
M481.153687,820.020020 
	C489.193695,815.668701 497.227570,816.867920 505.366119,818.132568 
	C508.153931,818.565735 511.232391,818.319092 513.973022,817.600708 
	C518.710999,816.358826 520.489014,817.449097 520.391113,822.479126 
	C520.187134,832.962769 519.978455,843.446716 519.673401,853.927673 
	C519.574768,857.316284 520.192017,859.724731 524.253357,860.250122 
	C525.531555,860.415466 527.356689,862.125305 527.522400,863.323181 
	C527.659241,864.312378 525.919739,866.174500 524.653809,866.610229 
	C522.371643,867.395874 519.816467,867.718567 517.384888,867.676880 
	C510.626282,867.560852 503.866180,866.817932 497.118439,866.945251 
	C485.638611,867.161865 475.450409,861.013000 472.033447,851.628723 
	C468.800842,842.750916 471.490112,824.740784 481.153687,820.020020 
M492.779938,860.123413 
	C496.547882,860.210632 500.449371,860.912659 504.029358,860.134888 
	C505.919281,859.724182 508.599243,856.735962 508.601776,854.908264 
	C508.614044,846.130005 508.079254,837.324402 507.142456,828.592468 
	C506.939911,826.704895 504.583069,824.090088 502.696686,823.511475 
	C495.482666,821.298523 486.659851,825.616150 483.324158,832.353027 
	C478.553284,841.988647 482.533447,854.592102 492.779938,860.123413 
z"/>
<path fill="#FFFFFF" opacity="1.000000" stroke="none" 
	d="
M863.023438,863.026855 
	C850.351196,852.511780 848.940125,835.803467 859.483521,824.453430 
	C869.508362,813.661804 886.665100,813.397095 896.997742,823.874634 
	C907.342590,834.364746 906.891296,851.474060 896.007202,861.425293 
	C887.021606,869.640625 874.379456,870.338806 863.023438,863.026855 
M871.660583,855.825256 
	C873.486572,857.254456 875.182190,858.904480 877.161682,860.073792 
	C884.739990,864.550293 891.973755,861.240479 893.700806,852.631653 
	C895.784485,842.245056 888.731018,828.284485 879.133728,823.799500 
	C871.522339,820.242676 865.508728,823.147278 863.836731,831.371460 
	C861.955078,840.626404 865.568054,848.289062 871.660583,855.825256 
z"/>
<path fill="#FFFFFF" opacity="1.000000" stroke="none" 
	d="
M828.307129,838.069092 
	C828.339172,841.222778 828.526367,843.895264 828.373901,846.548157 
	C827.940247,854.093262 829.472412,860.796326 836.928772,865.176025 
	C836.603821,865.554810 836.278931,865.933533 835.954041,866.312256 
	C827.781555,866.312256 819.609009,866.312256 810.950195,866.312256 
	C811.386536,864.900391 811.395081,863.747803 811.975708,863.171143 
	C816.937988,858.242065 817.352356,852.137085 817.197388,845.617981 
	C816.801941,828.976562 816.705261,812.327881 816.517151,795.681824 
	C816.480957,792.480896 816.321167,789.135132 820.539917,788.197388 
	C825.933411,786.998657 828.378296,788.939514 828.384521,794.623657 
	C828.400208,808.942017 828.338074,823.260498 828.307129,838.069092 
z"/>
<path fill="#FFFFFF" opacity="1.000000" stroke="none" 
	d="
M715.251160,857.948975 
	C709.483826,868.778748 699.547241,871.825500 690.138489,865.868591 
	C686.305725,863.442078 684.058228,859.960815 683.927124,855.023926 
	C688.909607,853.998108 691.182129,857.953491 694.239807,860.107361 
	C698.696899,863.246887 701.447998,863.315796 704.818359,859.927246 
	C708.395508,856.330872 708.144409,853.334473 703.813049,850.619507 
	C699.446228,847.882202 694.936401,845.373901 690.514404,842.723450 
	C683.697754,838.637573 681.199219,830.947327 684.508423,824.356079 
	C687.659180,818.080444 696.812805,814.993835 703.566040,818.518372 
	C706.694458,820.151001 709.271790,822.972412 711.781311,825.562622 
	C712.394165,826.195129 712.234436,828.702148 711.582947,829.171570 
	C710.587891,829.888306 708.543884,830.161499 707.497559,829.597839 
	C704.747375,828.116150 702.341370,826.010925 699.711060,824.287048 
	C697.216980,822.652405 694.572449,822.332703 692.633606,825.011353 
	C690.574280,827.856262 691.785889,830.537842 694.158203,832.460754 
	C696.333679,834.224304 698.869690,835.560913 701.314880,836.967468 
	C703.040833,837.960327 704.898560,838.721069 706.666260,839.645020 
	C714.739563,843.865051 717.041809,848.621887 715.251160,857.948975 
z"/>
<path fill="#FFFFFF" opacity="1.000000" stroke="none" 
	d="
M597.181152,828.317932 
	C596.285767,815.970642 595.239624,816.925903 606.991089,817.117371 
	C611.145020,817.184998 615.309509,817.102173 619.450256,817.375000 
	C627.024658,817.874084 631.119202,823.238159 629.687195,830.684631 
	C629.497681,831.670105 628.705994,833.141907 627.995911,833.266724 
	C627.178772,833.410461 625.888000,832.508606 625.251709,831.705383 
	C623.727051,829.780701 622.862183,827.090942 620.986694,825.754272 
	C619.085083,824.399170 615.932922,823.263855 613.985840,823.936157 
	C612.011597,824.617798 609.777100,827.495056 609.509705,829.641541 
	C608.546326,837.374512 608.042175,845.206421 608.076965,852.997681 
	C608.087952,855.462341 610.132446,858.043640 611.612793,860.334778 
	C612.733521,862.069458 614.436279,863.428101 616.845947,865.974976 
	C607.452759,865.974976 599.392944,865.974976 591.346985,865.974976 
	C591.278809,865.358276 591.092957,864.879578 591.230774,864.752808 
	C600.646240,856.094971 596.971863,844.723938 597.538330,834.250183 
	C597.636292,832.437988 597.339172,830.604370 597.181152,828.317932 
z"/>
<path fill="#FFFFFF" opacity="1.000000" stroke="none" 
	d="
M553.585632,823.346802 
	C553.459534,818.804626 556.061401,817.785522 559.462097,818.033081 
	C563.129395,818.299988 566.028442,819.769592 566.020996,824.037109 
	C566.007385,831.865662 566.076172,839.705078 565.685547,847.518677 
	C565.379272,853.645203 566.009827,859.157654 571.308472,863.182861 
	C571.895325,863.628662 572.103577,864.572876 573.026184,866.286804 
	C564.353516,867.788025 556.390747,867.117432 547.392944,866.279968 
	C558.657715,852.698914 554.749939,838.060425 553.585632,823.346802 
z"/>
<path fill="#FFFFFF" opacity="1.000000" stroke="none" 
	d="
M562.722595,808.939575 
	C559.569763,810.220703 556.522644,810.844421 554.947998,807.696045 
	C554.295044,806.390503 554.977234,803.137268 556.065613,802.499817 
	C558.548462,801.045410 561.871338,799.578918 564.461182,800.092529 
	C568.340027,800.861633 567.624146,805.140625 562.722595,808.939575 
z"/>
<path fill="#FFFFFF" opacity="1.000000" stroke="none" 
	d="
M681.271179,408.483521 
	C663.594177,407.927277 646.579712,406.146790 630.597107,399.057068 
	C625.658142,396.866119 621.332031,393.799164 619.189453,388.468201 
	C615.414612,379.076324 621.343872,371.053101 631.333740,372.074463 
	C645.569397,373.529846 659.798035,376.098328 674.040771,376.176788 
	C691.958740,376.275421 709.887146,374.328491 727.812683,373.292450 
	C732.115356,373.043762 736.482422,372.373901 740.718018,372.834320 
	C748.382751,373.667511 752.247498,381.832764 748.636597,388.687744 
	C745.403259,394.825867 739.750305,398.031189 733.740662,400.631836 
	C722.260437,405.599854 710.014709,407.081665 697.692627,407.972015 
	C692.382446,408.355774 687.043457,408.340271 681.271179,408.483521 
z"/>
<path fill="#FFFFFF" opacity="1.000000" stroke="none" 
	d="
M720.363281,306.976074 
	C724.873169,319.090515 721.110962,329.668335 709.528625,334.634766 
	C692.117920,342.100433 674.186890,341.062439 657.067566,333.881409 
	C644.795349,328.733612 641.257874,313.864777 650.123596,303.760559 
	C659.630493,292.925781 670.784241,283.526611 681.381531,273.675507 
	C682.251465,272.866913 685.038208,272.688751 685.802429,273.412628 
	C697.369751,284.369537 708.747681,295.526459 720.363281,306.976074 
z"/>
<path fill="#FFFFFF" opacity="1.000000" stroke="none" 
	d="
M747.837524,221.856613 
	C763.897522,216.789749 779.584961,211.867599 795.229492,206.812683 
	C798.830200,205.649261 800.897522,206.493439 801.965759,210.237549 
	C806.925537,227.621201 797.259277,246.392471 780.092041,252.541046 
	C761.544373,259.184052 742.578064,251.392120 735.061890,234.041336 
	C732.278137,227.614990 732.690735,226.664474 739.355591,224.466156 
	C742.037964,223.581421 744.750488,222.788040 747.837524,221.856613 
z"/>
<path fill="#FFFFFF" opacity="1.000000" stroke="none" 
	d="
M566.162598,208.461456 
	C567.839417,207.657303 569.598022,206.503754 570.879517,206.898605 
	C590.921204,213.074066 610.880310,219.517410 630.913086,225.722488 
	C635.023682,226.995728 634.396667,229.269119 633.285156,232.234406 
	C626.527649,250.261124 607.372192,259.320465 588.806274,253.206726 
	C570.009888,247.017120 560.335754,228.175629 566.162598,208.461456 
z"/>
</svg>